<?xml version="1.0" standalone="no"?>
<!DOCTYPE svg PUBLIC "-//W3C//DTD SVG 20010904//EN"
 "http://www.w3.org/TR/2001/REC-SVG-20010904/DTD/svg10.dtd">
<svg version="1.0" xmlns="http://www.w3.org/2000/svg"
 width="216.000000pt" height="215.000000pt" viewBox="0 0 216.000000 215.000000"
 preserveAspectRatio="xMidYMid meet">

<g transform="translate(0.000000,215.000000) scale(0.100000,-0.100000)"
fill="#ffffff" stroke="none">
<path d="M954 2032 c-28 -18 -37 -54 -24 -93 12 -36 11 -40 -11 -58 -22 -18
-23 -20 -7 -38 18 -19 20 -64 15 -248 -2 -71 -8 -110 -21 -133 -15 -29 -16
-43 -6 -110 5 -42 10 -98 10 -124 -1 -25 4 -49 10 -53 15 -9 12 -40 -7 -96
-17 -47 -17 -50 1 -84 16 -30 17 -41 8 -73 -6 -20 -11 -53 -11 -72 1 -114 -10
-254 -24 -315 -9 -38 -17 -79 -17 -91 0 -11 -9 -29 -20 -39 -11 -10 -20 -29
-20 -42 l0 -23 223 0 224 0 -1 166 c-1 150 1 167 18 179 17 13 17 16 2 62 -22
67 -36 167 -25 171 5 2 18 21 29 43 11 21 36 53 56 71 22 20 34 40 32 53 -1
11 1 26 6 33 10 16 13 14 -53 47 l-54 27 -22 -28 -22 -28 -17 57 c-17 58 -67
127 -92 127 -17 0 -18 38 -3 77 27 65 33 73 58 73 26 1 26 1 -4 14 l-30 13 30
10 30 11 -32 1 c-25 1 -33 -3 -33 -16 0 -13 -3 -14 -12 -5 -19 19 -54 14 -87
-14 -33 -27 -38 -25 -20 8 15 27 74 51 97 39 14 -7 25 -4 48 15 l29 25 -33
-16 c-38 -19 -52 -14 -46 18 l5 22 -12 -22 c-7 -13 -19 -23 -27 -23 -9 0 -27
10 -40 23 l-25 22 17 -32 c17 -34 14 -38 -24 -34 -13 2 -13 1 0 -8 12 -8 12
-13 2 -23 -25 -25 -32 10 -36 166 -4 146 -3 158 15 169 25 15 24 32 -1 50 -16
11 -19 21 -15 40 4 15 0 37 -10 57 -9 17 -14 38 -11 46 6 16 5 17 -10 6z m9
-618 c15 16 27 25 27 19 0 -5 -11 -20 -25 -33 -23 -21 -27 -22 -41 -9 -9 10
-12 22 -7 35 6 16 8 15 13 -11 l6 -30 27 29z m93 -49 c9 -19 25 -37 36 -41 11
-3 17 -8 15 -11 -12 -11 -48 21 -68 58 -11 23 -16 38 -10 35 6 -4 18 -22 27
-41z m-58 -61 c-7 -14 -25 -32 -40 -40 -27 -14 -27 -12 9 25 21 21 39 40 40
40 2 1 -3 -11 -9 -25z m-20 -91 c-25 -58 -33 -68 -24 -29 6 26 34 76 42 76 1
0 -6 -21 -18 -47z m73 -10 c-5 -10 -24 -31 -42 -48 -38 -35 -28 -14 15 33 34
36 41 40 27 15z m-31 -116 c-56 -55 -51 -38 9 25 19 21 37 35 40 32 3 -2 -19
-28 -49 -57z m226 -3 c11 -43 -2 -47 -18 -6 -13 33 -13 40 -2 35 8 -3 17 -16
20 -29z m77 -24 c-3 -11 -7 -20 -9 -20 -2 0 -4 9 -4 20 0 11 4 20 9 20 5 0 7
-9 4 -20z m-282 -95 c-24 -46 -49 -89 -55 -94 -7 -6 10 34 38 89 28 54 53 97
55 94 3 -2 -15 -42 -38 -89z m132 -217 l-6 -122 37 23 c52 32 52 22 0 -16
l-44 -33 0 89 c0 84 9 181 16 181 2 0 1 -55 -3 -122z m-147 -148 c-13 -41 -27
-88 -30 -105 l-8 -30 24 21 c29 27 88 57 96 50 3 -3 0 -6 -6 -6 -6 0 -40 -22
-76 -50 -37 -27 -66 -46 -66 -41 0 7 42 131 70 209 22 61 19 27 -4 -48z m158
-118 c-4 -45 -3 -76 5 -91 11 -21 11 -21 -8 -9 -12 7 -21 22 -21 34 0 26 21
134 26 134 2 0 1 -31 -2 -68z"/>
<path d="M810 300 c0 -19 7 -20 260 -20 253 0 260 1 260 20 0 19 -7 20 -260
20 -253 0 -260 -1 -260 -20z"/>
<path d="M800 225 l0 -35 270 0 270 0 0 35 0 35 -270 0 -270 0 0 -35z"/>
<path d="M754 171 c-2 -2 -4 -19 -4 -38 l0 -33 315 0 315 0 0 38 0 37 -311 0
c-171 0 -313 -2 -315 -4z"/>
</g>
</svg>
