<?xml version="1.0" standalone="no"?>
<!DOCTYPE svg PUBLIC "-//W3C//DTD SVG 20010904//EN"
 "http://www.w3.org/TR/2001/REC-SVG-20010904/DTD/svg10.dtd">
<svg version="1.0" xmlns="http://www.w3.org/2000/svg"
 width="225.000000pt" height="225.000000pt" viewBox="0 0 225.000000 225.000000"
 preserveAspectRatio="xMidYMid meet">

<g transform="translate(0.000000,225.000000) scale(0.100000,-0.100000)"
fill="#ffffff" stroke="none">
<path d="M984 2175 c-145 -31 -293 -118 -383 -225 -66 -78 -125 -200 -146
-302 l-18 -88 -92 0 c-75 0 -94 -3 -99 -16 -3 -9 -6 -256 -6 -549 l0 -534 -38
-3 -37 -3 -3 -82 -3 -83 -43 0 c-31 0 -46 -5 -50 -16 -11 -29 -7 -189 6 -202
9 -9 257 -12 1054 -12 880 0 1043 2 1053 14 8 9 11 48 9 112 l-3 99 -47 3 -47
3 -3 82 -3 82 -42 3 -43 3 -2 547 -3 547 -96 3 -95 3 -22 95 c-26 116 -67 202
-138 287 -154 188 -425 283 -660 232z m321 -73 c88 -27 175 -78 243 -145 50
-49 132 -159 132 -178 0 -4 -33 3 -72 17 -298 102 -678 102 -976 0 -39 -14
-72 -22 -72 -18 0 4 16 32 36 62 95 146 239 243 415 280 69 14 215 5 294 -18z
m-55 -292 c126 -12 274 -45 389 -88 80 -29 80 -30 94 -119 l7 -42 -77 -3 -78
-3 -5 -70 -5 -70 -32 -3 -33 -3 0 81 c0 80 -1 83 -34 116 -38 38 -86 45 -135
19 -38 -19 -44 -35 -50 -130 -6 -77 -7 -80 -31 -80 -24 0 -25 3 -31 80 -3 44
-9 88 -13 98 -18 40 -98 59 -149 36 -38 -17 -52 -49 -57 -134 -5 -77 -6 -80
-30 -80 -24 0 -25 2 -30 88 -5 84 -7 90 -35 113 -44 35 -105 33 -147 -5 -32
-28 -33 -33 -37 -116 l-3 -86 -32 3 c-31 3 -31 3 -36 73 l-5 70 -78 3 -77 3 7
42 c14 92 10 88 126 129 123 43 229 66 354 77 129 12 138 12 263 1z m-372
-242 c7 -7 12 -42 12 -85 l0 -73 -50 0 -50 0 0 66 c0 36 5 74 10 85 12 22 59
26 78 7z m280 0 c7 -7 12 -42 12 -85 l0 -73 -50 0 -50 0 0 73 c0 80 9 97 50
97 14 0 31 -5 38 -12z m280 0 c7 -7 12 -42 12 -85 l0 -73 -50 0 -50 0 0 73 c0
80 9 97 50 97 14 0 31 -5 38 -12z m-838 -133 c0 -61 2 -66 26 -75 35 -14 969
-13 995 0 16 9 19 22 19 75 l0 65 150 0 150 0 -2 -517 -3 -518 -235 0 -235 0
-12 98 c-49 395 -197 624 -373 578 -147 -39 -252 -247 -294 -586 l-11 -90
-235 0 -235 0 -3 518 -2 517 150 0 150 0 0 -65z m600 -375 c92 -65 170 -278
196 -533 l7 -67 -282 0 -281 0 0 28 c0 37 27 201 47 281 35 147 131 301 195
314 39 9 87 -1 118 -23z m830 -715 l0 -55 -905 0 -905 0 0 55 0 55 905 0 905
0 0 -55z m100 -170 l0 -55 -1005 0 -1005 0 0 55 0 55 1005 0 1005 0 0 -55z"/>
</g>
</svg>
